<svg xmlns="http://www.w3.org/2000/svg" width="1000" height="660" viewBox="0 0 1000 660" font-family='"Microsoft JhengHei","Noto Sans TC",sans-serif'><defs><marker id="ar" markerWidth="10" markerHeight="10" refX="7" refY="5" orient="auto"><path d="M0,0 L9,5 L0,10 z" fill="#ff7a6b"/></marker><marker id="ao" markerWidth="10" markerHeight="10" refX="7" refY="5" orient="auto"><path d="M0,0 L9,5 L0,10 z" fill="#ffb74d"/></marker></defs><rect x="0" y="520" width="1000" height="140" fill="#6b5535" fill-opacity="0.35"/><line x1="0" y1="520" x2="1000" y2="520" stroke="#6b5535" stroke-width="4"/><path d="M540 175 L880 516 L540 516 Z" fill="#5C7F52" fill-opacity="0.8" stroke="#d9e2da" stroke-width="3"/><path d="M540 175 L230 516 L540 516 Z" fill="#7FA06B" fill-opacity="0.55" stroke="#d9e2da" stroke-width="2.5"/><line x1="540" y1="175" x2="540" y2="516" stroke="#c3cad2" stroke-width="9"/><circle cx="540" cy="175" r="9" fill="#ffb74d"/><text x="558" y="169" font-size="21" font-weight="700" fill="#ffb74d">上方用繩綁緊</text><line x1="540" y1="175" x2="150" y2="516" stroke="#ffb74d" stroke-width="4" stroke-dasharray="12 8"/><line x1="150" y1="512" x2="150" y2="538" stroke="#c3cad2" stroke-width="5"/><path d="M141,538 L159,538 L150,554 Z" fill="#c3cad2"/><line x1="880" y1="512" x2="880" y2="538" stroke="#c3cad2" stroke-width="5"/><path d="M871,538 L889,538 L880,554 Z" fill="#c3cad2"/><circle cx="540" cy="123" r="25" fill="#4fc3f7" stroke="#0d1117" stroke-width="2"/><text x="540" y="132" font-size="26" font-weight="700" fill="#fff" text-anchor="middle">5</text><text x="532" y="400" font-size="22" font-weight="700" fill="#4fc3f7" text-anchor="middle">登山杖 120–125 cm</text><text x="500.0" y="628" font-size="25" font-weight="700" fill="#81c784" text-anchor="middle">穿入天幕下方垂直撐起 → 上方綁緊 → 往外拉繩下釘固定</text></svg>