<svg xmlns="http://www.w3.org/2000/svg" width="1000" height="660" viewBox="0 0 1000 660" font-family='"Microsoft JhengHei","Noto Sans TC",sans-serif'><defs><marker id="ar" markerWidth="10" markerHeight="10" refX="7" refY="5" orient="auto"><path d="M0,0 L9,5 L0,10 z" fill="#ff7a6b"/></marker><marker id="ao" markerWidth="10" markerHeight="10" refX="7" refY="5" orient="auto"><path d="M0,0 L9,5 L0,10 z" fill="#ffb74d"/></marker></defs><rect x="0" y="520" width="1000" height="140" fill="#6b5535" fill-opacity="0.35"/><line x1="0" y1="520" x2="1000" y2="520" stroke="#6b5535" stroke-width="4"/><path d="M500 165 L815 516 L500 516 Z" fill="#5C7F52" fill-opacity="0.85" stroke="#d9e2da" stroke-width="3"/><path d="M500 165 L185 516 L500 516 Z" fill="#7FA06B" fill-opacity="0.5" stroke="#d9e2da" stroke-width="2.5"/><line x1="500" y1="165" x2="500" y2="516" stroke="#c3cad2" stroke-width="9"/><line x1="500" y1="165" x2="120" y2="516" stroke="#ffb74d" stroke-width="4" stroke-dasharray="12 8"/><line x1="120" y1="512" x2="120" y2="538" stroke="#c3cad2" stroke-width="5"/><path d="M111,538 L129,538 L120,554 Z" fill="#c3cad2"/><line x1="815" y1="512" x2="815" y2="538" stroke="#c3cad2" stroke-width="5"/><path d="M806,538 L824,538 L815,554 Z" fill="#c3cad2"/><line x1="185" y1="512" x2="185" y2="538" stroke="#c3cad2" stroke-width="5"/><path d="M176,538 L194,538 L185,554 Z" fill="#c3cad2"/><text x="650" y="395" font-size="23" font-weight="700" fill="#fff" text-anchor="middle">封閉式帳身</text><text x="330" y="490" font-size="21" font-weight="700" fill="#e9f0ea" text-anchor="middle">前庭（可炊煮）</text><line x1="255" y1="450" x2="305" y2="500" stroke="#ff7a6b" stroke-width="3.5" marker-end="url(#ar)"/><line x1="760" y1="450" x2="715" y2="500" stroke="#ff7a6b" stroke-width="3.5" marker-end="url(#ar)"/><text x="500.0" y="120" font-size="22" font-weight="700" fill="#81c784" text-anchor="middle">多餘布料「由外往內」塞並封起</text><text x="500.0" y="628" font-size="25" font-weight="700" fill="#81c784" text-anchor="middle">用登山杖的繩把布面往外拉起，增加帳內頭部高度與空間</text></svg>