<svg xmlns="http://www.w3.org/2000/svg" width="1000" height="660" viewBox="0 0 1000 660" font-family='"Microsoft JhengHei","Noto Sans TC",sans-serif'><defs><marker id="ar" markerWidth="10" markerHeight="10" refX="7" refY="5" orient="auto"><path d="M0,0 L9,5 L0,10 z" fill="#ff7a6b"/></marker><marker id="ao" markerWidth="10" markerHeight="10" refX="7" refY="5" orient="auto"><path d="M0,0 L9,5 L0,10 z" fill="#ffb74d"/></marker></defs><rect x="175" y="150" width="650" height="370" rx="10" fill="#5C7F52" fill-opacity="0.42" stroke="#d9e2da" stroke-width="3.5"/><line x1="337.5" y1="150" x2="337.5" y2="520" stroke="#d9e2da" stroke-opacity="0.18" stroke-width="1.5"/><line x1="175" y1="242.5" x2="825" y2="242.5" stroke="#d9e2da" stroke-opacity="0.18" stroke-width="1.5"/><line x1="500" y1="150" x2="500" y2="520" stroke="#d9e2da" stroke-opacity="0.18" stroke-width="1.5"/><line x1="175" y1="335" x2="825" y2="335" stroke="#d9e2da" stroke-opacity="0.18" stroke-width="1.5"/><line x1="662.5" y1="150" x2="662.5" y2="520" stroke="#d9e2da" stroke-opacity="0.18" stroke-width="1.5"/><line x1="175" y1="427.5" x2="825" y2="427.5" stroke="#d9e2da" stroke-opacity="0.18" stroke-width="1.5"/><circle cx="825" cy="150" r="4.5" fill="#d9e2da" fill-opacity="0.75"/><text x="829" y="134" font-size="22" fill="#93a0a8" text-anchor="start">A</text><circle cx="662.5" cy="150" r="4.5" fill="#d9e2da" fill-opacity="0.75"/><text x="662.5" y="134" font-size="22" fill="#93a0a8" text-anchor="middle">B</text><circle cx="500" cy="150" r="4.5" fill="#d9e2da" fill-opacity="0.75"/><text x="500" y="134" font-size="22" fill="#93a0a8" text-anchor="middle">C</text><circle cx="337.5" cy="150" r="4.5" fill="#d9e2da" fill-opacity="0.75"/><text x="337.5" y="134" font-size="22" fill="#93a0a8" text-anchor="middle">D</text><circle cx="175" cy="150" r="4.5" fill="#d9e2da" fill-opacity="0.75"/><text x="171" y="134" font-size="22" fill="#93a0a8" text-anchor="end">E</text><circle cx="175" cy="242.5" r="4.5" fill="#d9e2da" fill-opacity="0.75"/><text x="159" y="248.5" font-size="22" fill="#93a0a8" text-anchor="end">F</text><circle cx="175" cy="335" r="4.5" fill="#d9e2da" fill-opacity="0.75"/><text x="159" y="341" font-size="22" fill="#93a0a8" text-anchor="end">G</text><circle cx="175" cy="427.5" r="4.5" fill="#d9e2da" fill-opacity="0.75"/><text x="159" y="433.5" font-size="22" fill="#93a0a8" text-anchor="end">H</text><circle cx="175" cy="520" r="4.5" fill="#d9e2da" fill-opacity="0.75"/><text x="171" y="546" font-size="22" fill="#93a0a8" text-anchor="end">I</text><circle cx="337.5" cy="520" r="4.5" fill="#d9e2da" fill-opacity="0.75"/><text x="337.5" y="550" font-size="22" fill="#93a0a8" text-anchor="middle">J</text><circle cx="500" cy="520" r="4.5" fill="#d9e2da" fill-opacity="0.75"/><text x="500" y="550" font-size="22" fill="#93a0a8" text-anchor="middle">K</text><circle cx="662.5" cy="520" r="4.5" fill="#d9e2da" fill-opacity="0.75"/><text x="662.5" y="550" font-size="22" fill="#93a0a8" text-anchor="middle">L</text><circle cx="825" cy="520" r="4.5" fill="#d9e2da" fill-opacity="0.75"/><text x="839" y="544" font-size="22" fill="#93a0a8" text-anchor="start">M</text><circle cx="825" cy="427.5" r="4.5" fill="#d9e2da" fill-opacity="0.75"/><text x="841" y="433.5" font-size="22" fill="#93a0a8" text-anchor="start">N</text><circle cx="825" cy="335" r="4.5" fill="#d9e2da" fill-opacity="0.75"/><text x="841" y="341" font-size="22" fill="#93a0a8" text-anchor="start">O</text><circle cx="825" cy="242.5" r="4.5" fill="#d9e2da" fill-opacity="0.75"/><text x="841" y="248.5" font-size="22" fill="#93a0a8" text-anchor="start">P</text><circle cx="662.5" cy="150" r="25" fill="#e8643a" stroke="#0d1117" stroke-width="2"/><text x="662.5" y="159" font-size="26" font-weight="700" fill="#fff" text-anchor="middle">1</text><circle cx="337.5" cy="150" r="25" fill="#e8643a" stroke="#0d1117" stroke-width="2"/><text x="337.5" y="159" font-size="26" font-weight="700" fill="#fff" text-anchor="middle">2</text><circle cx="662.5" cy="427.5" r="25" fill="#e8643a" stroke="#0d1117" stroke-width="2"/><text x="662.5" y="436.5" font-size="26" font-weight="700" fill="#fff" text-anchor="middle">3</text><circle cx="337.5" cy="427.5" r="25" fill="#e8643a" stroke="#0d1117" stroke-width="2"/><text x="337.5" y="436.5" font-size="26" font-weight="700" fill="#fff" text-anchor="middle">4</text><circle cx="500" cy="335" r="27" fill="#4fc3f7" stroke="#0d1117" stroke-width="2"/><text x="500" y="344" font-size="26" font-weight="700" fill="#fff" text-anchor="middle">5</text><line x1="337.5" y1="479.5" x2="662.5" y2="479.5" stroke="#ff7a6b" stroke-width="3" marker-start="url(#ar)" marker-end="url(#ar)"/><text x="500" y="505.5" font-size="24" font-weight="700" fill="#ff7a6b" text-anchor="middle">第3 ↔ 第4：約 160–165 cm</text><text x="500" y="297" font-size="22" font-weight="700" fill="#4fc3f7" text-anchor="middle">登山杖 120–125 cm</text><text x="500.0" y="628" font-size="25" font-weight="700" fill="#81c784" text-anchor="middle">五固定點：B①、D② 上緣　N③、H④ 往內　中央登山杖⑤</text></svg>