<svg xmlns="http://www.w3.org/2000/svg" width="1000" height="660" viewBox="0 0 1000 660" font-family='"Microsoft JhengHei","Noto Sans TC",sans-serif'><defs><marker id="ao" markerWidth="10" markerHeight="10" refX="7" refY="5" orient="auto"><path d="M0,0 L9,5 L0,10 z" fill="#ffb74d"/></marker></defs><rect x="0" y="520" width="1000" height="140" fill="#6b5535" fill-opacity="0.35"/><line x1="0" y1="520" x2="1000" y2="520" stroke="#6b5535" stroke-width="4"/><path d="M370 165 L790 516 L760 516 L370 193 Z" fill="#5C7F52" fill-opacity="0.35"/><line x1="370" y1="165" x2="790" y2="516" stroke="#5C7F52" stroke-width="20" stroke-linecap="round"/><line x1="370" y1="165" x2="370" y2="516" stroke="#c3cad2" stroke-width="9"/><line x1="370" y1="165" x2="200" y2="516" stroke="#ffb74d" stroke-width="4.5" stroke-dasharray="14 9"/><line x1="200" y1="512" x2="200" y2="538" stroke="#c3cad2" stroke-width="5"/><path d="M191,538 L209,538 L200,554 Z" fill="#c3cad2"/><line x1="370" y1="512" x2="370" y2="538" stroke="#c3cad2" stroke-width="5"/><path d="M361,538 L379,538 L370,554 Z" fill="#c3cad2"/><line x1="790" y1="512" x2="790" y2="538" stroke="#c3cad2" stroke-width="5"/><path d="M781,538 L799,538 L790,554 Z" fill="#c3cad2"/><text x="370" y="120" font-weight="700" font-size="26" fill="#81c784" text-anchor="middle">一高一低．單斜面</text><text x="354" y="342.5" font-weight="700" font-size="20" fill="#c3cad2" text-anchor="end">高側營柱／登山杖</text><text x="730" y="560" font-weight="700" font-size="21" fill="#81c784" text-anchor="middle">斜邊下緣下釘觸地</text><text x="500.0" y="628" font-size="25" font-weight="700" fill="#81c784" text-anchor="middle">一側撐高、另一側斜拉下釘觸地；迎風面朝斜邊擋風</text></svg>